<svg width="16" height="11" viewBox="0 0 16 11" fill="none" xmlns="http://www.w3.org/2000/svg">
<path d="M13.2432 0.326L5.63068 7.93304L1.86819 4.19241C1.66295 3.98718 1.3846 3.87188 1.09436 3.87188C0.804116 3.87188 0.525761 3.98718 0.320529 4.19241C0.115297 4.39764 2.16247e-09 4.676 0 4.96624C-2.16247e-09 5.25648 0.115297 5.53484 0.320529 5.74007L4.85959 10.2791C4.96117 10.3808 5.0818 10.4615 5.21457 10.5165C5.34735 10.5716 5.48968 10.5999 5.63342 10.5999C5.77715 10.5999 5.91948 10.5716 6.05226 10.5165C6.18503 10.4615 6.30566 10.3808 6.40724 10.2791L14.7908 1.86819C14.9961 1.66296 15.1114 1.3846 15.1114 1.09436C15.1114 0.804117 14.9961 0.525763 14.7908 0.320531C14.5856 0.115299 14.3072 7.49103e-09 14.017 0C13.7268 -7.49103e-09 13.4484 0.115299 13.2432 0.320531V0.326Z" fill="#039E12"/>
</svg>
