<svg width="50" height="50" viewBox="0 0 50 50" fill="none" xmlns="http://www.w3.org/2000/svg">
<g clip-path="url(#clip0)">
<path d="M29.9393 33.032C28.7602 34.2134 27.1894 34.8634 25.5204 34.8634C23.8519 34.8634 22.281 34.2134 21.1019 33.032L12.2477 24.1782C11.0667 22.9987 10.4167 21.4282 10.4167 19.7593C10.4167 18.0904 11.0667 16.5199 12.2477 15.3408C13.4268 14.1594 14.9977 13.5094 16.6666 13.5094C18.3352 13.5094 19.906 14.1594 21.0851 15.3408L25.5204 19.7738L37.7644 7.53026C33.7643 4.11996 28.5851 2.05127 22.9166 2.05127C10.2603 2.05127 0 12.3116 0 24.9674C0 37.6237 10.2603 47.884 22.9166 47.884C35.5725 47.884 45.8327 37.6237 45.8327 24.9674C45.8327 22.5989 45.4726 20.3155 44.8058 18.1655L29.9393 33.032Z" fill="#4CAF50"/>
<path d="M25.5198 30.6967C24.9865 30.6967 24.4532 30.4927 24.047 30.0864L15.1931 21.2322C14.3783 20.4178 14.3783 19.1009 15.1931 18.2865C16.0076 17.4717 17.324 17.4717 18.1388 18.2865L25.5198 25.6675L46.4428 4.74486C47.2572 3.93043 48.5737 3.93043 49.3885 4.74486C50.2029 5.55967 50.2029 6.8761 49.3885 7.69092L26.9926 30.0864C26.5868 30.4927 26.0531 30.6967 25.5198 30.6967Z" fill="#4CAF50"/>
</g>
<defs>
<clipPath id="clip0">
<rect width="50" height="50" fill="white"/>
</clipPath>
</defs>
</svg>
