<svg width="58" height="53" viewBox="0 0 58 53" fill="none" xmlns="http://www.w3.org/2000/svg">
<path d="M56.4688 37.1645L38.8077 5.7788C36.802 2.21439 33.012 0 28.9166 0C24.8213 0 21.0313 2.21439 19.0255 5.7788L1.3645 37.1645C0.471815 38.751 0 40.5511 0 42.3706C0 48.2317 4.77632 53 10.6473 53H47.1859C53.0569 53 57.8332 48.2317 57.8332 42.3706C57.8332 40.5511 57.3614 38.751 56.4688 37.1645ZM47.1859 49.617H10.6473C6.64495 49.617 3.38866 46.3663 3.38866 42.3706C3.38866 41.1301 3.71036 39.9028 4.31885 38.8214L21.9799 7.43568C23.3865 4.93588 26.0446 3.38298 28.9166 3.38298C31.7887 3.38298 34.4467 4.93588 35.8532 7.43568L53.5142 38.8214C54.1228 39.9028 54.4444 41.1301 54.4444 42.3706C54.4445 46.3663 51.1884 49.617 47.1859 49.617Z" fill="#FF2727"/>
<path d="M47.1859 49.617H10.6473C6.64495 49.617 3.38866 46.3663 3.38866 42.3706C3.38866 41.1301 3.71036 39.9028 4.31885 38.8214L21.9799 7.43568C23.3865 4.93588 26.0446 3.38298 28.9166 3.38298C31.7887 3.38298 34.4467 4.93588 35.8532 7.43568L53.5142 38.8214C54.1228 39.9028 54.4444 41.1301 54.4444 42.3706C54.4445 46.3663 51.1884 49.617 47.1859 49.617Z" fill="#FF2727"/>
<path d="M28.917 7.89331C26.1142 7.89331 23.834 10.1697 23.834 12.9678V27.6274C23.834 30.4254 26.1142 32.7018 28.917 32.7018C31.7197 32.7018 34 30.4254 34 27.6274V12.9678C34 10.1697 31.7197 7.89331 28.917 7.89331ZM30.6113 27.6274C30.6113 28.56 29.8512 29.3188 28.917 29.3188C27.9827 29.3188 27.2226 28.56 27.2226 27.6274V12.9678C27.2226 12.0351 27.9827 11.2763 28.917 11.2763C29.8512 11.2763 30.6113 12.0351 30.6113 12.9678V27.6274Z" fill="white"/>
<path d="M28.917 36.0852C26.1142 36.0852 23.834 38.3616 23.834 41.1597C23.834 43.9577 26.1142 46.2341 28.917 46.2341C31.7197 46.2341 34 43.9577 34 41.1597C34 38.3616 31.7197 36.0852 28.917 36.0852ZM28.917 42.8512C27.9827 42.8512 27.2226 42.0924 27.2226 41.1597C27.2226 40.227 27.9827 39.4682 28.917 39.4682C29.8512 39.4682 30.6113 40.227 30.6113 41.1597C30.6113 42.0924 29.8512 42.8512 28.917 42.8512Z" fill="white"/>
</svg>
