<svg width="22" height="22" viewBox="0 0 22 22" fill="none" xmlns="http://www.w3.org/2000/svg">
<g clip-path="url(#clip0)">
<path d="M6.5008 16.1383C5.56877 16.0907 5.58632 14.7797 6.50076 14.7342C9.09109 14.7432 15.9233 14.7366 18.596 14.7385C19.327 14.7385 19.9524 14.241 20.1169 13.5288L21.6345 6.95695C21.7214 6.58067 21.6337 6.19121 21.3939 5.88851C21.1541 5.5858 20.7951 5.40975 20.409 5.40975C19.3338 5.40975 10.2071 5.36844 5.53237 5.3498L4.79135 2.6003C4.61347 1.94324 4.01386 1.48438 3.33316 1.48438H0.959317C0.613966 1.48438 0.333984 1.76436 0.333984 2.10971C0.333984 2.45506 0.613966 2.73504 0.959317 2.73504H3.33316C3.45035 2.73504 3.55353 2.81404 3.584 2.92647L6.42989 13.4852C5.9295 13.5034 5.46342 13.707 5.10998 14.0656C4.73862 14.4424 4.53918 14.9413 4.54839 15.4703C4.56682 16.5282 5.44266 17.3889 6.5008 17.3889H7.41262C7.27709 17.6734 7.20101 17.9914 7.20101 18.3269C7.20101 19.5338 8.18286 20.5157 9.38975 20.5157C10.5966 20.5157 11.5785 19.5338 11.5785 18.3269C11.5785 17.9914 11.5024 17.6734 11.3668 17.3889H15.3154C15.18 17.6733 15.104 17.9912 15.104 18.3266C15.104 19.5335 16.0859 20.5154 17.2927 20.5154C18.4996 20.5154 19.4815 19.5335 19.4815 18.3266C19.4815 17.9781 19.3992 17.6486 19.2537 17.3559C19.5012 17.2726 19.6796 17.0391 19.6796 16.7636C19.6796 16.4183 19.3996 16.1383 19.0543 16.1383H6.5008ZM10.3278 18.327C10.3278 18.8443 9.90699 19.2651 9.38971 19.2651C8.87244 19.2651 8.45163 18.8443 8.45163 18.327C8.45163 17.81 8.87202 17.3894 9.38892 17.3889H9.3905C9.9074 17.3894 10.3278 17.81 10.3278 18.327ZM17.2927 19.2647C16.7755 19.2647 16.3547 18.8439 16.3547 18.3267C16.3547 17.8145 16.7673 17.3972 17.2775 17.3889H17.308C17.8183 17.3972 18.2309 17.8145 18.2309 18.3267C18.2309 18.8439 17.81 19.2647 17.2927 19.2647ZM20.4136 6.665C20.4173 6.66967 20.4167 6.67188 20.4159 6.67547L19.7765 9.44465H17.6111L17.9798 6.65054L20.404 6.66029C20.4077 6.66037 20.4099 6.66038 20.4136 6.665ZM13.9666 13.4878V10.6953H16.1845L15.816 13.4878H13.9666ZM10.8657 13.4878L10.4942 10.6953H12.7159V13.4878H10.8657ZM7.98697 13.4878H7.98501C7.83259 13.4878 7.69831 13.3849 7.65867 13.2385L6.97322 10.6953H9.23246L9.60399 13.4878H7.98697ZM10.3278 9.44469L9.95168 6.61823L12.7159 6.62936V9.44469H10.3278ZM13.9666 9.44469V6.6344L16.719 6.64549L16.3496 9.44469H13.9666ZM8.6893 6.6131L9.06604 9.44465H6.63612L5.86988 6.60172L8.6893 6.6131ZM18.596 13.4878H17.0775L17.446 10.6953H19.4876L18.8983 13.2474C18.8656 13.3889 18.7413 13.4878 18.596 13.4878Z" fill="#333333"/>
</g>
<defs>
<clipPath id="clip0">
<rect width="21.3333" height="21.3333" fill="white" transform="translate(0.333984 0.333374)"/>
</clipPath>
</defs>
</svg>
